<svg width="40" height="40" viewBox="0 0 40 40" fill="none" xmlns="http://www.w3.org/2000/svg">
<path d="M35.2075 0V16.3153H4.79251V0H1.72345V40H4.79251V37.3438H35.2075V40H38.2766V0H35.2075ZM4.79251 34.3047V19.3722H35.2075V34.3047H4.79251Z" fill="#C08E78"/>
<path d="M18.7797 21.2497H6.73155C6.45368 21.2497 6.22842 21.4749 6.22842 21.7528V33.8009C6.22842 34.0788 6.45368 34.3041 6.73155 34.3041H18.7797C19.0575 34.3041 19.2828 34.0788 19.2828 33.8009V21.7528C19.2828 21.4749 19.0575 21.2497 18.7797 21.2497Z" fill="#FAC77C"/>
<g opacity="0.5">
<path opacity="0.5" d="M19.2813 21.7522V33.8019C19.2811 33.9352 19.2281 34.063 19.1338 34.1572C19.0395 34.2515 18.9117 34.3045 18.7784 34.3047H6.73157C6.63641 34.3046 6.54323 34.2775 6.46281 34.2266C6.3824 34.1757 6.31804 34.1031 6.27719 34.0172H18.3003C18.4337 34.017 18.5615 33.964 18.6558 33.8696C18.7501 33.7753 18.803 33.6474 18.8031 33.5141V21.4663C18.8032 21.3913 18.7861 21.3173 18.7531 21.25H18.7813C18.914 21.2509 19.0409 21.3042 19.1346 21.3982C19.2282 21.4923 19.2809 21.6195 19.2813 21.7522Z" fill="#FABA59"/>
</g>
<path d="M11.2812 33.5625C11.1987 33.5625 11.1195 33.5298 11.0609 33.4716C11.0024 33.4134 10.9692 33.3344 10.9687 33.2519L10.9437 29.2631C10.9434 29.2221 10.9512 29.1814 10.9667 29.1434C10.9821 29.1053 11.0049 29.0707 11.0337 29.0415C11.0625 29.0123 11.0968 28.989 11.1346 28.9731C11.1724 28.9571 11.213 28.9487 11.254 28.9484H11.2562C11.3388 28.9484 11.418 28.9811 11.4765 29.0393C11.5351 29.0975 11.5682 29.1765 11.5687 29.2591L11.5937 33.25C11.594 33.291 11.5861 33.3317 11.5707 33.3697C11.5552 33.4077 11.5324 33.4423 11.5035 33.4715C11.4747 33.5007 11.4404 33.5239 11.4026 33.5399C11.3647 33.5558 11.3241 33.5641 11.2831 33.5644L11.2812 33.5625Z" fill="#2F3A5A"/>
<path d="M12.1281 30.6131C12.0824 30.6132 12.0372 30.6032 11.9957 30.5839C11.9542 30.5645 11.9175 30.5363 11.8881 30.5013L11.2703 29.7647L10.7594 30.4497C10.7096 30.516 10.6356 30.5598 10.5536 30.5716C10.4715 30.5833 10.3882 30.5619 10.3219 30.5122C10.2556 30.4625 10.2117 30.3884 10.2 30.3064C10.1883 30.2243 10.2096 30.141 10.2594 30.0747L11.0069 29.0728C11.0351 29.0351 11.0715 29.0043 11.1133 28.9827C11.1552 28.961 11.2014 28.9491 11.2484 28.9478C11.296 28.9453 11.3434 28.9541 11.3869 28.9735C11.4303 28.9929 11.4686 29.0223 11.4984 29.0594L12.37 30.0988C12.4082 30.1443 12.4327 30.1998 12.4405 30.2588C12.4483 30.3177 12.4391 30.3777 12.414 30.4316C12.3889 30.4855 12.3489 30.5311 12.2988 30.5631C12.2486 30.5951 12.1904 30.6121 12.1309 30.6122L12.1281 30.6131Z" fill="#2F3A5A"/>
<path d="M8.54623 33.5625C8.46368 33.5625 8.38447 33.5298 8.32592 33.4716C8.26737 33.4134 8.23423 33.3344 8.23373 33.2519L8.20811 29.2625C8.20782 29.2215 8.21562 29.1808 8.23106 29.1427C8.24649 29.1047 8.26927 29.0701 8.29809 29.0409C8.3269 29.0117 8.36119 28.9884 8.399 28.9724C8.4368 28.9565 8.47738 28.9481 8.51842 28.9478H8.52061C8.60316 28.9478 8.68237 28.9805 8.74092 29.0387C8.79947 29.0969 8.83261 29.1759 8.83311 29.2584L8.85873 33.2481C8.85898 33.2892 8.85114 33.3299 8.83567 33.3679C8.82019 33.4059 8.79738 33.4405 8.76853 33.4696C8.73969 33.4988 8.70538 33.5221 8.66756 33.538C8.62973 33.5539 8.58915 33.5623 8.54811 33.5625H8.54623Z" fill="#2F3A5A"/>
<path d="M9.3925 30.6131C9.34674 30.6132 9.30153 30.6032 9.26006 30.5839C9.21859 30.5645 9.18187 30.5363 9.1525 30.5013L8.535 29.7647L8.02374 30.4497C7.97402 30.516 7.89999 30.5598 7.81794 30.5715C7.73589 30.5833 7.65255 30.5619 7.58624 30.5122C7.51994 30.4625 7.47611 30.3884 7.46438 30.3064C7.45266 30.2243 7.47402 30.141 7.52374 30.0747L8.27125 29.0728C8.29949 29.0351 8.33588 29.0043 8.37771 28.9827C8.41954 28.961 8.46573 28.9491 8.51281 28.9478C8.56036 28.9451 8.60789 28.9538 8.65139 28.9732C8.69489 28.9926 8.7331 29.0221 8.76281 29.0594L9.63437 30.0988C9.67261 30.1443 9.69706 30.1998 9.70485 30.2588C9.71264 30.3177 9.70344 30.3777 9.67834 30.4316C9.65323 30.4855 9.61327 30.5311 9.56313 30.5631C9.513 30.5951 9.45478 30.6121 9.39531 30.6122L9.3925 30.6131Z" fill="#2F3A5A"/>
<path d="M10.5088 21.2497H14.9416V24.2509H10.5088V21.2497Z" fill="#E1E6E9"/>
<path d="M33.6297 21.2497H21.5816C21.3037 21.2497 21.0784 21.4749 21.0784 21.7528V33.8009C21.0784 34.0788 21.3037 34.3041 21.5816 34.3041H33.6297C33.9075 34.3041 34.1328 34.0788 34.1328 33.8009V21.7528C34.1328 21.4749 33.9075 21.2497 33.6297 21.2497Z" fill="#FAC77C"/>
<g opacity="0.5">
<path opacity="0.5" d="M34.1325 21.7522V33.8019C34.1323 33.9352 34.0793 34.063 33.9851 34.1572C33.8908 34.2515 33.763 34.3045 33.6297 34.3047H21.5816C21.4864 34.3046 21.3932 34.2775 21.3128 34.2266C21.2324 34.1757 21.168 34.1031 21.1272 34.0172H33.1503C33.2837 34.017 33.4115 33.964 33.5058 33.8696C33.6001 33.7753 33.6531 33.6474 33.6531 33.5141V21.4662C33.6533 21.3911 33.6362 21.3169 33.6031 21.2494H33.6297C33.763 21.2495 33.8908 21.3026 33.9851 21.3968C34.0793 21.4911 34.1323 21.6189 34.1325 21.7522Z" fill="#FABA59"/>
</g>
<path d="M26.1319 33.5625C26.0493 33.5625 25.9701 33.5298 25.9116 33.4716C25.853 33.4134 25.8199 33.3344 25.8194 33.2519L25.7937 29.2631C25.7935 29.2221 25.8012 29.1814 25.8167 29.1434C25.8321 29.1053 25.8549 29.0707 25.8837 29.0415C25.9125 29.0123 25.9468 28.989 25.9846 28.9731C26.0224 28.9571 26.063 28.9487 26.104 28.9484H26.1062C26.1888 28.9484 26.268 28.9811 26.3265 29.0393C26.3851 29.0975 26.4182 29.1765 26.4187 29.2591L26.4444 33.2488C26.4449 33.3316 26.4124 33.4112 26.3543 33.4702C26.2961 33.5291 26.2169 33.5625 26.134 33.5631L26.1319 33.5625Z" fill="#2F3A5A"/>
<path d="M26.9781 30.6131C26.9324 30.6132 26.8872 30.6032 26.8457 30.5839C26.8042 30.5645 26.7675 30.5363 26.7381 30.5013L26.1206 29.7644L25.6091 30.4497C25.5844 30.4825 25.5536 30.5102 25.5183 30.5311C25.483 30.552 25.4439 30.5657 25.4033 30.5715C25.3626 30.5774 25.3213 30.5751 25.2815 30.5649C25.2418 30.5547 25.2044 30.5368 25.1716 30.5122C25.1387 30.4876 25.1111 30.4567 25.0902 30.4214C25.0693 30.3861 25.0555 30.347 25.0497 30.3064C25.0439 30.2658 25.0462 30.2244 25.0563 30.1846C25.0665 30.1449 25.0844 30.1075 25.1091 30.0747L25.8566 29.0728C25.8848 29.0351 25.9213 29.0042 25.9632 28.9826C26.0051 28.9609 26.0513 28.9491 26.0984 28.9478C26.146 28.9451 26.1935 28.9538 26.237 28.9732C26.2805 28.9926 26.3187 29.0221 26.3484 29.0594L27.2188 30.0997C27.257 30.1453 27.2815 30.2008 27.2892 30.2598C27.297 30.3188 27.2878 30.3787 27.2627 30.4327C27.2375 30.4866 27.1975 30.5322 27.1473 30.5642C27.0971 30.5962 27.0389 30.6131 26.9794 30.6131H26.9781Z" fill="#2F3A5A"/>
<path d="M23.3962 33.5625C23.3137 33.5625 23.2345 33.5298 23.1759 33.4716C23.1174 33.4134 23.0842 33.3344 23.0837 33.2519L23.0581 29.2625C23.0578 29.2215 23.0656 29.1808 23.0811 29.1427C23.0965 29.1047 23.1193 29.0701 23.1481 29.0409C23.1769 29.0117 23.2112 28.9884 23.249 28.9724C23.2868 28.9565 23.3274 28.9481 23.3684 28.9478H23.3706C23.4532 28.9478 23.5324 28.9805 23.5909 29.0387C23.6495 29.0969 23.6826 29.1759 23.6831 29.2584L23.7087 33.2481C23.7092 33.331 23.6768 33.4106 23.6186 33.4695C23.5605 33.5285 23.4812 33.5619 23.3984 33.5625H23.3962Z" fill="#2F3A5A"/>
<path d="M24.2425 30.6131C24.1968 30.6131 24.1517 30.6031 24.1102 30.5838C24.0688 30.5645 24.0322 30.5363 24.0028 30.5013L23.385 29.7644L22.8734 30.4497C22.8488 30.4825 22.818 30.5102 22.7827 30.5311C22.7473 30.552 22.7083 30.5657 22.6676 30.5715C22.627 30.5774 22.5856 30.5751 22.5459 30.5649C22.5061 30.5547 22.4688 30.5368 22.4359 30.5122C22.4031 30.4876 22.3755 30.4567 22.3545 30.4214C22.3336 30.3861 22.3199 30.347 22.3141 30.3064C22.3083 30.2658 22.3105 30.2244 22.3207 30.1846C22.3309 30.1449 22.3488 30.1075 22.3734 30.0747L23.1209 29.0728C23.1492 29.0351 23.1857 29.0042 23.2276 28.9826C23.2694 28.9609 23.3157 28.9491 23.3628 28.9478C23.4103 28.9457 23.4576 28.9547 23.501 28.9741C23.5444 28.9934 23.5827 29.0226 23.6128 29.0594L24.4844 30.0988C24.5226 30.1443 24.5471 30.1999 24.5549 30.2588C24.5626 30.3178 24.5534 30.3778 24.5283 30.4317C24.5031 30.4857 24.4631 30.5313 24.4129 30.5633C24.3628 30.5952 24.3045 30.6122 24.245 30.6122L24.2425 30.6131Z" fill="#2F3A5A"/>
<path d="M25.3588 21.2497H29.7916V24.2509H25.3588V21.2497Z" fill="#E1E6E9"/>
<path d="M26.4747 3.26031H14.4266C14.1487 3.26031 13.9234 3.48557 13.9234 3.76344V15.8116C13.9234 16.0894 14.1487 16.3147 14.4266 16.3147H26.4747C26.7526 16.3147 26.9778 16.0894 26.9778 15.8116V3.76344C26.9778 3.48557 26.7526 3.26031 26.4747 3.26031Z" fill="#FAC77C"/>
<g opacity="0.5">
<path opacity="0.5" d="M26.9775 3.76281V15.8125C26.9774 15.9459 26.9244 16.0737 26.8302 16.1681C26.7359 16.2624 26.6081 16.3155 26.4747 16.3156H14.4266C14.3314 16.3154 14.2382 16.2883 14.1578 16.2374C14.0774 16.1865 14.013 16.1138 13.9722 16.0278H25.9953C26.1286 16.0276 26.2564 15.9746 26.3507 15.8804C26.4449 15.7861 26.498 15.6583 26.4981 15.525V3.47656C26.4984 3.40139 26.4813 3.32717 26.4481 3.25969H26.4747C26.608 3.25994 26.7358 3.31303 26.8301 3.40734C26.9243 3.50165 26.9773 3.62948 26.9775 3.76281Z" fill="#FABA59"/>
</g>
<path d="M18.9769 15.5734C18.8943 15.5734 18.8151 15.5408 18.7566 15.4826C18.698 15.4244 18.6649 15.3454 18.6644 15.2628L18.6391 11.2734C18.6388 11.2324 18.6467 11.1917 18.6621 11.1537C18.6776 11.1157 18.7004 11.0811 18.7293 11.0519C18.7581 11.0227 18.7924 10.9995 18.8303 10.9836C18.8681 10.9676 18.9087 10.9593 18.9497 10.9591H18.9516C19.0341 10.9591 19.1132 10.9917 19.1718 11.0498C19.2303 11.1079 19.2635 11.1869 19.2641 11.2694L19.2894 15.2591C19.2896 15.3001 19.2818 15.3408 19.2663 15.3788C19.2508 15.4168 19.228 15.4514 19.1992 15.4806C19.1703 15.5098 19.136 15.533 19.0982 15.5489C19.0604 15.5649 19.0198 15.5732 18.9788 15.5734H18.9769Z" fill="#2F3A5A"/>
<path d="M19.8231 12.625C19.7774 12.6251 19.7322 12.6151 19.6907 12.5957C19.6492 12.5764 19.6125 12.5482 19.5831 12.5131L18.9656 11.775L18.4544 12.4603C18.4046 12.5266 18.3306 12.5705 18.2486 12.5822C18.1665 12.5939 18.0832 12.5725 18.0169 12.5228C17.9506 12.4731 17.9067 12.3991 17.895 12.317C17.8833 12.235 17.9046 12.1516 17.9544 12.0853L18.7022 11.0834C18.7304 11.0456 18.7667 11.0147 18.8086 10.9929C18.8504 10.9712 18.8966 10.9592 18.9438 10.9578C18.9909 10.9565 19.0378 10.9658 19.0808 10.9851C19.1238 11.0044 19.1619 11.0332 19.1922 11.0694L20.0625 12.1103C20.1007 12.1559 20.1252 12.2114 20.133 12.2703C20.1408 12.3293 20.1316 12.3892 20.1065 12.4432C20.0814 12.4971 20.0414 12.5427 19.9913 12.5747C19.9411 12.6067 19.8829 12.6237 19.8234 12.6238L19.8231 12.625Z" fill="#2F3A5A"/>
<path d="M16.2416 15.5734C16.159 15.5734 16.0798 15.5408 16.0213 15.4826C15.9627 15.4244 15.9296 15.3454 15.9291 15.2628L15.9034 11.2734C15.9029 11.1906 15.9354 11.111 15.9935 11.052C16.0517 10.9931 16.1309 10.9596 16.2138 10.9591H16.216C16.2985 10.9591 16.3776 10.9917 16.4362 11.0498C16.4947 11.1079 16.5279 11.1869 16.5285 11.2694L16.5541 15.2591C16.5543 15.3001 16.5465 15.3408 16.531 15.3788C16.5155 15.4168 16.4927 15.4514 16.4639 15.4806C16.435 15.5098 16.4007 15.533 16.3629 15.5489C16.3251 15.5649 16.2845 15.5732 16.2435 15.5734H16.2416Z" fill="#2F3A5A"/>
<path d="M17.0875 12.625C17.0417 12.6251 16.9965 12.6151 16.9551 12.5957C16.9136 12.5764 16.8769 12.5482 16.8475 12.5131L16.2303 11.775L15.7188 12.4603C15.6941 12.4931 15.6633 12.5208 15.628 12.5417C15.5927 12.5626 15.5536 12.5764 15.5129 12.5822C15.4723 12.588 15.4309 12.5857 15.3912 12.5755C15.3514 12.5653 15.3141 12.5474 15.2813 12.5228C15.2484 12.4982 15.2208 12.4673 15.1999 12.432C15.1789 12.3967 15.1652 12.3576 15.1594 12.317C15.1536 12.2764 15.1558 12.235 15.166 12.1953C15.1762 12.1555 15.1941 12.1181 15.2187 12.0853L15.9666 11.0834C15.9947 11.0456 16.0311 11.0147 16.073 10.9929C16.1148 10.9712 16.161 10.9592 16.2082 10.9578C16.2553 10.9565 16.3021 10.9658 16.3452 10.9851C16.3882 11.0044 16.4263 11.0332 16.4566 11.0694L17.3278 12.1091C17.3669 12.1546 17.392 12.2105 17.4002 12.27C17.4084 12.3295 17.3992 12.39 17.3739 12.4445C17.3485 12.4989 17.3081 12.5449 17.2573 12.5769C17.2065 12.6089 17.1475 12.6256 17.0875 12.625Z" fill="#2F3A5A"/>
<path d="M18.2037 3.26031H22.6365V6.26157H18.2037V3.26031Z" fill="#E1E6E9"/>
</svg>
