<svg id="Capa_1" enable-background="new 0 0 512 512" height="512" viewBox="0 0 512 512" width="512" xmlns="http://www.w3.org/2000/svg"><g><g><g><g><circle cx="256" cy="70.533" fill="#fddf80" r="70.533"/><g><g fill="#3f6e90"><circle cx="233.166" cy="44.753" r="7.611"/><circle cx="278.835" cy="44.753" r="7.611"/></g><g><path d="m255.998 103.925c-11.672 0-20.851-3.712-26.513-6.84-3.679-2.033-5.014-6.664-2.981-10.343 2.032-3.679 6.66-5.015 10.343-2.982 4.121 2.276 10.786 5.018 19.338 4.942 8.357-.039 14.928-2.709 18.969-4.941 3.679-2.034 8.309-.699 10.343 2.981 2.033 3.679.699 8.31-2.981 10.343-5.594 3.091-14.69 6.786-26.26 6.84-.087 0-.173 0-.258 0z" fill="#3f6e90"/></g></g></g><g><circle cx="74.339" cy="70.533" fill="#fddf80" r="70.533"/><g><g fill="#3f6e90"><circle cx="51.504" cy="44.753" r="7.611"/><circle cx="97.173" cy="44.753" r="7.611"/></g><g><path d="m51.511 103.926c-2.682 0-5.281-1.42-6.67-3.933-2.032-3.68-.697-8.31 2.983-10.343 5.662-3.127 14.844-6.839 26.514-6.839h.256c11.57.054 20.666 3.749 26.26 6.84 3.68 2.033 5.014 6.664 2.981 10.343-2.033 3.68-6.664 5.014-10.343 2.981-4.042-2.232-10.612-4.902-18.969-4.941-8.488-.033-15.217 2.665-19.339 4.942-1.166.644-2.429.95-3.673.95z" fill="#3f6e90"/></g></g></g><g><circle cx="437.661" cy="70.533" fill="#fddf80" r="70.533"/><g fill="#f9d070"><path d="m437.661 0c-5.229 0-10.318.586-15.223 1.666 31.634 6.962 55.31 35.142 55.31 68.868s-23.677 61.905-55.31 68.868c4.905 1.079 9.994 1.666 15.223 1.666 38.954 0 70.533-31.579 70.533-70.533s-31.579-70.535-70.533-70.535z"/><path d="m256 0c-5.229 0-10.318.586-15.223 1.666 31.634 6.962 55.31 35.142 55.31 68.868s-23.677 61.905-55.31 68.868c4.905 1.079 9.994 1.666 15.223 1.666 38.954 0 70.533-31.579 70.533-70.533s-31.579-70.535-70.533-70.535z"/><path d="m74.339 0c-5.229 0-10.318.586-15.223 1.666 31.634 6.962 55.31 35.142 55.31 68.868s-23.677 61.905-55.31 68.868c4.905 1.079 9.994 1.666 15.223 1.666 38.954 0 70.533-31.579 70.533-70.533s-31.579-70.535-70.533-70.535z"/></g><g><g fill="#3f6e90"><circle cx="414.827" cy="44.753" r="7.611"/><circle cx="460.496" cy="44.753" r="7.611"/></g><g><path d="m460.496 103.925h-45.669c-4.204 0-7.612-3.408-7.612-7.611s3.407-7.611 7.612-7.611h45.669c4.204 0 7.611 3.408 7.611 7.611s-3.407 7.611-7.611 7.611z" fill="#3f6e90"/></g></g></g></g><path d="m489.041 237.138h-466.082c-10.578 0-19.153-8.575-19.153-19.153 0-10.578 8.575-19.153 19.153-19.153h466.083c10.578 0 19.153 8.575 19.153 19.153-.001 10.578-8.576 19.153-19.154 19.153z" fill="#eaf6ff"/><path d="m489.041 198.832h-30.446c10.578 0 19.153 8.575 19.153 19.153 0 10.578-8.575 19.153-19.153 19.153h30.446c10.578 0 19.153-8.575 19.153-19.153 0-10.578-8.575-19.153-19.153-19.153z" fill="#d8ecfe"/><circle cx="256" cy="217.985" fill="#f58a97" r="49.221"/><path d="m256 168.764c-5.315 0-10.428.853-15.223 2.411 19.731 6.413 33.998 24.94 33.998 46.81 0 21.869-14.267 40.397-33.998 46.81 4.795 1.558 9.908 2.411 15.223 2.411 27.184 0 49.221-22.037 49.221-49.221s-22.037-49.221-49.221-49.221z" fill="#f07281"/></g><g><path d="m334.217 330.909.003-28.247c.001-8.425 6.831-15.255 15.256-15.255 8.426 0 15.257 6.824 15.257 15.25.002 26.675.002 80.17.002 92.743 0 1.794-.161 3.577-.481 5.342l-14.851 81.973-98.333-8.079-72.097-138.881c-3.886-7.485-2.814-16.583 2.705-22.959 4.701-5.432 13.058-5.635 18.018-.439l35.968 37.685c2.529 2.649 6.996.86 6.996-2.803v-126.901c0-8.427 6.832-15.259 15.259-15.259 8.427 0 15.259 6.832 15.259 15.259v110.571z" fill="#ffcebf"/><g fill="#ffb09e"><path d="m364.734 303.034c-.001-8.021-6.041-14.95-14.038-15.578-3.902-.307-7.51.875-10.358 3.012 3.275 2.796 5.357 6.947 5.358 11.591.002 30.353.002 95.433.002 95.433l-15.159 83.674 18.865 1.55 14.851-81.973c.32-1.765.481-3.552.481-5.345 0-12.522 0-65.568-.002-92.364z"/><path d="m254.142 219.74v108.897c0 5.257 4.262 9.519 9.519 9.519 5.257 0 9.519-4.262 9.519-9.519v-107.921c0-8.023-6.041-14.96-14.039-15.589-3.903-.307-7.511.875-10.36 3.013 3.277 2.798 5.361 6.953 5.361 11.6z"/><path d="m181.666 312.814 35.399 37.088c3.861 4.046 9.971 4.966 14.853 2.237l3.749-2.096-36.229-37.959c-4.933-5.166-13.282-4.823-17.772.73z"/></g><path d="m273.18 330.909v-28.242c0-8.427 6.832-15.259 15.259-15.259 8.427 0 15.259 6.832 15.259 15.259v28.242z" fill="#ffcebf"/><path d="m288.44 287.407c-3.313 0-6.37 1.067-8.871 2.86 3.862 2.769 6.388 7.284 6.388 12.399v26.618c0 4.899 3.972 8.871 8.871 8.871 4.899 0 8.871-3.972 8.871-8.871v-26.618c0-8.427-6.832-15.259-15.259-15.259z" fill="#ffb09e"/><path d="m303.699 330.909v-28.242c0-8.427 6.832-15.259 15.259-15.259 8.427 0 15.259 6.832 15.259 15.259v28.242z" fill="#ffcebf"/><path d="m318.958 287.407c-3.313 0-6.37 1.067-8.871 2.86 3.862 2.769 6.388 7.284 6.388 12.399v26.618c0 4.899 3.972 8.871 8.871 8.871 4.899 0 8.871-3.972 8.871-8.871v-26.618c0-8.427-6.831-15.259-15.259-15.259z" fill="#ffb09e"/></g><path d="m369.202 507.941v-20.151c0-11.21-9.087-20.297-20.297-20.297h-98.531c-11.21 0-20.297 9.087-20.297 20.297v20.151c0 2.242 1.817 4.059 4.059 4.059h131.007c2.242 0 4.059-1.817 4.059-4.059z" fill="#aee49e"/><path d="m348.905 467.493h-30.446c11.21 0 20.297 9.087 20.297 20.297v20.151c0 2.242-1.818 4.059-4.059 4.059h30.446c2.242 0 4.059-1.817 4.059-4.059v-20.151c0-11.21-9.087-20.297-20.297-20.297z" fill="#8bd8a5"/></g></svg>