<svg width="40" height="40" viewBox="0 0 40 40" fill="none" xmlns="http://www.w3.org/2000/svg">
<path d="M40 20C40 31.0457 31.0457 40 20 40C8.9543 40 0 31.0457 0 20C0 8.9543 8.9543 0 20 0C31.0457 0 40 8.9543 40 20Z" fill="#F0FAA0"/>
<path d="M13.75 26.0156V30.8594C13.75 31.0751 13.5751 31.25 13.3594 31.25H4.76562C4.54992 31.25 4.375 31.0751 4.375 30.8594V26.0156C4.375 25.7999 4.54992 25.625 4.76562 25.625H13.3594C13.5751 25.625 13.75 25.7999 13.75 26.0156ZM13.3594 18.75H4.76562C4.54992 18.75 4.375 18.9249 4.375 19.1406V23.9844C4.375 24.2001 4.54992 24.375 4.76562 24.375H13.3594C13.5751 24.375 13.75 24.2001 13.75 23.9844V19.1406C13.75 18.9249 13.5751 18.75 13.3594 18.75ZM23.9844 25.625H15.3906C15.1749 25.625 15 25.7999 15 26.0156V30.8594C15 31.0751 15.1749 31.25 15.3906 31.25H23.9844C24.2001 31.25 24.375 31.0751 24.375 30.8594V26.0156C24.375 25.7999 24.2001 25.625 23.9844 25.625ZM23.9844 18.75H15.3906C15.1749 18.75 15 18.9249 15 19.1406V23.9844C15 24.2001 15.1749 24.375 15.3906 24.375H23.9844C24.2001 24.375 24.375 24.2001 24.375 23.9844V19.1406C24.375 18.9249 24.2001 18.75 23.9844 18.75ZM35.2344 25.625H26.6406C26.4249 25.625 26.25 25.7999 26.25 26.0156V30.8594C26.25 31.0751 26.4249 31.25 26.6406 31.25H35.2344C35.4501 31.25 35.625 31.0751 35.625 30.8594V26.0156C35.625 25.7999 35.4501 25.625 35.2344 25.625ZM35.2344 18.75H26.6406C26.4249 18.75 26.25 18.9249 26.25 19.1406V23.9844C26.25 24.2001 26.4249 24.375 26.6406 24.375H35.2344C35.4501 24.375 35.625 24.2001 35.625 23.9844V19.1406C35.625 18.9249 35.4501 18.75 35.2344 18.75Z" fill="#EBF582"/>
<path d="M35.3563 32.8125C31.6876 37.2048 26.1706 40 20 40C13.8295 40 8.31243 37.2048 4.64368 32.8125H35.3563Z" fill="#F2C230"/>
<path d="M32.4219 1.95312V12.1094C32.4219 12.3251 32.247 12.5 32.0312 12.5H20.3125C20.0968 12.5 19.9219 12.3251 19.9219 12.1094V1.95312C19.9219 1.73742 20.0968 1.5625 20.3125 1.5625H32.0312C32.247 1.5625 32.4219 1.73742 32.4219 1.95312Z" fill="#D29650"/>
<path d="M34.7656 20.5078L15.2344 23.4375V11.7188H34.7656V20.5078Z" fill="#AA6432"/>
<path d="M23.4375 4.6875H19.9219V3.125H23.4375C23.6532 3.125 23.8281 3.29992 23.8281 3.51562V4.29688C23.8281 4.51258 23.6532 4.6875 23.4375 4.6875Z" fill="#F7D139"/>
<path d="M31.25 34.9609C31.25 35.3924 30.9002 35.7422 30.4687 35.7422H22.6562C22.2248 35.7422 21.875 35.3924 21.875 34.9609C21.875 34.5295 22.2248 34.1797 22.6562 34.1797H30.4687C30.9002 34.1797 31.25 34.5295 31.25 34.9609ZM15.625 34.1797H5.89944C6.45679 34.734 7.04593 35.2563 7.66515 35.7422H15.625C16.0565 35.7422 16.4062 35.3924 16.4062 34.9609C16.4062 34.5295 16.0565 34.1797 15.625 34.1797Z" fill="#E3A600"/>
<path d="M22.6562 18.75H15.2344V14.0625H22.6562C22.872 14.0625 23.0469 14.2374 23.0469 14.4531V18.3594C23.0469 18.5751 22.872 18.75 22.6562 18.75Z" fill="#FF6633"/>
<path d="M38.0469 6.05469H17.5774C17.5766 6.05469 17.5756 6.05469 17.5748 6.05469H10.3755L9.74227 3.52148C9.64781 3.14359 9.29258 2.90016 8.91664 2.93344C8.89266 2.93117 8.86836 2.92969 8.84375 2.92969H2.71875C2.29594 2.92969 1.95312 3.27945 1.95312 3.71094C1.95312 4.14242 2.29586 4.49219 2.71875 4.49219H8.37445L9.00211 7.00297L12.0758 23.2164L10.587 27.6827C10.4505 28.092 10.6718 28.5344 11.0812 28.6709C11.1631 28.6982 11.2464 28.7112 11.3284 28.7112C11.6555 28.7112 11.9603 28.5041 12.0694 28.1767L13.4494 24.0367L38.1457 20.8922C38.5359 20.8425 38.8283 20.5105 38.8283 20.1172V15.4394C38.8283 15.4393 38.8283 15.4392 38.8283 15.4392L38.8281 6.83594C38.8281 6.40445 38.4784 6.05469 38.0469 6.05469ZM10.7088 7.61719H16.8748L17.2675 11.3484L11.4486 11.5195L10.7088 7.61719ZM11.7434 13.0741L17.4316 12.9068L17.8072 16.4742L12.4793 16.9556L11.7434 13.0741ZM13.5213 22.4525L12.7716 18.498L17.9707 18.0282L18.3637 21.7615C18.3662 21.7862 18.3701 21.8105 18.3748 21.8345L13.5213 22.4525ZM18.4459 7.61719H24.6103C24.6103 7.63242 24.6098 7.64766 24.6107 7.66305L24.8145 11.1264L18.8338 11.3023L18.4459 7.61719ZM18.9978 12.8607L24.9062 12.687L25.0902 15.8161L19.3634 16.3336L18.9978 12.8607ZM19.9197 21.6377C19.919 21.6245 19.9189 21.6112 19.9175 21.5979L19.527 17.8876L25.182 17.3766L25.3917 20.941L19.9197 21.6377ZM26.1732 7.61719H31.6406V10.9257L26.377 11.0805L26.1732 7.61719ZM26.4688 12.6409L31.6406 12.4888V15.2241L26.6473 15.6753L26.4688 12.6409ZM26.9453 20.7432L26.739 17.2359L31.6406 16.793V20.1172C31.6406 20.1266 31.6417 20.1358 31.642 20.1452L26.9453 20.7432ZM37.2656 19.4291L33.2031 19.9463V16.6518L37.2656 16.2847V19.4291ZM37.2656 14.7159L33.2031 15.083V12.443L37.2656 12.3235V14.7159ZM37.2656 10.7602L33.2031 10.8797V7.61719H37.2656V10.7602Z" fill="#414669"/>
<path d="M34.7656 26.9531V28.5156C34.7656 28.7313 34.5907 28.9062 34.375 28.9062H10.9375C10.7218 28.9062 10.5469 28.7313 10.5469 28.5156V26.9531C10.5469 26.7374 10.7218 26.5625 10.9375 26.5625H34.375C34.5907 26.5625 34.7656 26.7374 34.7656 26.9531ZM6.15234 2.34375H2.83203C2.02297 2.34375 1.36719 2.99961 1.36719 3.80859C1.36719 4.61758 2.02305 5.27344 2.83203 5.27344H6.15234C6.96133 5.27344 7.61719 4.61758 7.61719 3.80859C7.61719 2.99961 6.96133 2.34375 6.15234 2.34375Z" fill="#FF6633"/>
<path d="M31.6406 26.7578V32.2266C31.6406 32.4423 31.4657 32.6172 31.25 32.6172H29.6875C29.4718 32.6172 29.2969 32.4423 29.2969 32.2266V26.7578C29.2969 26.5421 29.4718 26.3672 29.6875 26.3672H31.25C31.4657 26.3672 31.6406 26.5421 31.6406 26.7578ZM16.4062 26.3672H14.8438C14.628 26.3672 14.4531 26.5421 14.4531 26.7578V32.2266C14.4531 32.4423 14.628 32.6172 14.8438 32.6172H16.4062C16.622 32.6172 16.7969 32.4423 16.7969 32.2266V26.7578C16.7969 26.5421 16.622 26.3672 16.4062 26.3672Z" fill="#FF5019"/>
<path d="M33.2031 33.0078C33.2031 34.518 31.9789 35.7422 30.4688 35.7422C28.9586 35.7422 27.7344 34.518 27.7344 33.0078C27.7344 31.4977 28.9586 30.2734 30.4688 30.2734C31.9789 30.2734 33.2031 31.4977 33.2031 33.0078ZM15.625 30.2734C14.1148 30.2734 12.8906 31.4977 12.8906 33.0078C12.8906 34.518 14.1148 35.7422 15.625 35.7422C17.1352 35.7422 18.3594 34.518 18.3594 33.0078C18.3594 31.4977 17.1352 30.2734 15.625 30.2734Z" fill="#501E0F"/>
<path d="M32.0312 33.0078C32.0312 33.8708 31.3317 34.5703 30.4688 34.5703C29.6058 34.5703 28.9062 33.8708 28.9062 33.0078C28.9062 32.1448 29.6058 31.4453 30.4688 31.4453C31.3316 31.4453 32.0312 32.1448 32.0312 33.0078ZM15.625 31.4453C14.762 31.4453 14.0625 32.1448 14.0625 33.0078C14.0625 33.8708 14.762 34.5703 15.625 34.5703C16.488 34.5703 17.1875 33.8708 17.1875 33.0078C17.1875 32.1448 16.4879 31.4453 15.625 31.4453Z" fill="#B9783D"/>
</svg>
