<svg width="40" height="40" viewBox="0 0 40 40" fill="none" xmlns="http://www.w3.org/2000/svg">
<path d="M35.502 28.627L31.25 24.375L23.75 19.375H16.25L8.75 24.375L4.49797 28.627C4.06268 29.0623 3.7174 29.5791 3.48182 30.1478C3.24625 30.7165 3.125 31.3261 3.125 31.9416V35.7812C3.125 36.4029 3.37193 36.999 3.81147 37.4385C4.25101 37.8781 4.84715 38.125 5.46875 38.125H7.5L8.125 37.5H31.875L32.5 38.125H34.5312C35.1529 38.125 35.749 37.8781 36.1885 37.4385C36.6281 36.999 36.875 36.4029 36.875 35.7812V31.9416C36.875 31.3261 36.7538 30.7165 36.5182 30.1478C36.2826 29.5791 35.9373 29.0623 35.502 28.627Z" fill="#FA5D3F"/>
<path d="M23.75 19.375L20 23.125L16.25 19.375L16.875 16.25H23.125L23.75 19.375Z" fill="#FFD4CF"/>
<path d="M23.4326 17.7879L23.125 16.25H16.875L16.5641 17.8047L18.7378 18.8915C19.1305 19.0878 19.5637 19.1895 20.0028 19.1884C20.4418 19.1873 20.8745 19.0834 21.2662 18.8851L23.4326 17.7879Z" fill="#FBB8B0"/>
<path d="M25.9375 9.375H25V6.875H15V9.375H14.0625C13.6481 9.375 13.2507 9.53962 12.9576 9.83265C12.6646 10.1257 12.5 10.5231 12.5 10.9375V11.5625C12.5 11.9769 12.6646 12.3743 12.9576 12.6674C13.2507 12.9604 13.6481 13.125 14.0625 13.125H15V14.1765C15 14.6117 15.1212 15.0384 15.35 15.4087C15.5788 15.7789 15.9062 16.0782 16.2955 16.2728L19.2969 17.7734C19.515 17.8825 19.7557 17.939 19.9996 17.9384C20.2435 17.9378 20.4839 17.8801 20.7015 17.7699L23.7152 16.2438C24.1017 16.0481 24.4263 15.7491 24.6531 15.3799C24.88 15.0108 25 14.5861 25 14.1528V13.125H25.9375C26.3519 13.125 26.7493 12.9604 27.0424 12.6674C27.3354 12.3743 27.5 11.9769 27.5 11.5625V10.9375C27.5 10.5231 27.3354 10.1257 27.0424 9.83265C26.7493 9.53962 26.3519 9.375 25.9375 9.375Z" fill="#FFD4CF"/>
<path d="M16.875 10H18.125V11.25H16.875V10Z" fill="#AE7069"/>
<path d="M21.875 10H23.125V11.25H21.875V10Z" fill="#AE7069"/>
<path d="M20 15.625C18.9486 15.625 18.125 14.9387 18.125 14.0625H19.375C19.375 14.1727 19.6123 14.375 20 14.375C20.3877 14.375 20.625 14.1727 20.625 14.0625H21.875C21.875 14.9387 21.0514 15.625 20 15.625Z" fill="#AE7069"/>
<path d="M18.2812 1.875H21.7188C22.7548 1.875 23.7483 2.28655 24.4809 3.01911C25.2135 3.75168 25.625 4.74525 25.625 5.78125V6.875H14.375V5.78125C14.375 4.74525 14.7865 3.75168 15.5191 3.01911C16.2517 2.28655 17.2452 1.875 18.2812 1.875Z" fill="#FA5D3F"/>
<path d="M23.1958 9.00555L21.7334 8.03062C21.2201 7.6884 20.617 7.50578 20 7.50578C19.383 7.50578 18.7799 7.6884 18.2666 8.03062L16.8042 9.00555C16.5689 9.16242 16.2954 9.25249 16.0129 9.26615C15.7305 9.2798 15.4496 9.21653 15.2002 9.08308C14.9509 8.94964 14.7424 8.75102 14.5971 8.5084C14.4518 8.26579 14.375 7.98828 14.375 7.70547V6.875L16.9648 5.43625C17.8932 4.92046 18.9378 4.6498 19.9999 4.6498C21.062 4.6498 22.1066 4.92046 23.0351 5.43625L25.625 6.875V7.70547C25.625 7.98828 25.5482 8.26579 25.4029 8.5084C25.2576 8.75102 25.0491 8.94964 24.7998 9.08308C24.5504 9.21653 24.2695 9.2798 23.9871 9.26615C23.7046 9.25249 23.4311 9.16242 23.1958 9.00555Z" fill="#FAC850"/>
<path d="M30.4688 21.875H9.53125C9.09978 21.875 8.75 22.2248 8.75 22.6562V37.3438C8.75 37.7752 9.09978 38.125 9.53125 38.125H30.4688C30.9002 38.125 31.25 37.7752 31.25 37.3438V22.6562C31.25 22.2248 30.9002 21.875 30.4688 21.875Z" fill="#FAC850"/>
<path d="M10 33.75H7.5V38.125H14.375C14.375 36.9647 13.9141 35.8519 13.0936 35.0314C12.2731 34.2109 11.1603 33.75 10 33.75Z" fill="#FFD4CF"/>
<path d="M17.5 21.875H22.5V27.5H17.5V21.875Z" fill="#FA7D29"/>
<path d="M17.5 34.375H22.5V38.125H17.5V34.375Z" fill="#FA7D29"/>
<path d="M30 33.75H32.5V38.125H25.625C25.625 36.9647 26.0859 35.8519 26.9064 35.0314C27.7269 34.2109 28.8397 33.75 30 33.75Z" fill="#FFD4CF"/>
<path d="M10.625 23.75H11.875V25H10.625V23.75Z" fill="#FFFFFE"/>
<path d="M13.125 23.75H15.625V25H13.125V23.75Z" fill="#FFFFFE"/>
<path d="M10.625 26.25H15.625V27.5H10.625V26.25Z" fill="#FFFFFE"/>
<path d="M26.5625 24.375H28.75V25.9375C28.75 26.3519 28.5854 26.7493 28.2924 27.0424C27.9993 27.3354 27.6019 27.5 27.1875 27.5H25V25.9375C25 25.5231 25.1646 25.1257 25.4576 24.8326C25.7507 24.5396 26.1481 24.375 26.5625 24.375Z" fill="#FFFFFE"/>
<path d="M32.5 33.75H34.375V35H32.5V33.75Z" fill="#D3463D"/>
<path d="M5.625 33.75H7.5V35H5.625V33.75Z" fill="#D3463D"/>
</svg>
