<svg width="512" height="512" viewBox="0 0 512 512" fill="none" xmlns="http://www.w3.org/2000/svg">
<path d="M303.996 270.344C303.996 296.578 282.664 317.91 256.43 317.91C230.199 317.91 208.867 296.578 208.867 270.344C208.867 244.113 230.199 222.77 256.43 222.77C282.664 222.77 303.996 244.113 303.996 270.344Z" fill="#27C5FC"/>
<path d="M333.016 214.965C330.086 217.895 326.246 219.363 322.41 219.363C318.57 219.363 314.73 217.895 311.805 214.965C296.539 199.699 276.484 192.062 256.43 192.062C236.379 192.062 216.324 199.699 201.059 214.965C195.203 220.82 185.703 220.82 179.848 214.965C174 209.117 174 199.617 179.848 193.762C200.961 172.648 228.691 162.09 256.43 162.09C284.172 162.09 311.902 172.648 333.016 193.762C338.863 199.617 338.863 209.117 333.016 214.965V214.965Z" fill="#27C5FC"/>
<path d="M376.602 171.379C373.672 174.309 369.832 175.777 365.996 175.777C362.156 175.777 358.316 174.309 355.398 171.379C328.957 144.945 293.82 130.391 256.43 130.391C219.043 130.391 183.906 144.945 157.465 171.379C151.617 177.234 142.117 177.234 136.262 171.379C130.402 165.52 130.402 156.031 136.262 150.176C169.391 117.047 212.914 100.48 256.43 100.48C299.945 100.48 343.473 117.047 376.602 150.176C382.461 156.031 382.461 165.52 376.602 171.379V171.379Z" fill="#27C5FC"/>
<path d="M303.996 270.344C303.996 296.578 282.664 317.91 256.43 317.91V222.77C282.664 222.77 303.996 244.113 303.996 270.344Z" fill="#28A0F9"/>
<path d="M333.016 193.762C338.863 199.617 338.863 209.117 333.016 214.965C330.086 217.895 326.246 219.363 322.41 219.363C318.57 219.363 314.73 217.895 311.805 214.965C296.539 199.699 276.484 192.062 256.43 192.062V162.09C284.172 162.09 311.902 172.648 333.016 193.762V193.762Z" fill="#28A0F9"/>
<path d="M376.602 171.379C373.672 174.309 369.832 175.777 365.996 175.777C362.156 175.777 358.316 174.309 355.398 171.379C328.957 144.945 293.82 130.391 256.43 130.391V100.48C299.945 100.48 343.473 117.047 376.602 150.176C382.461 156.031 382.461 165.52 376.602 171.379V171.379Z" fill="#28A0F9"/>
<rect x="384.584" y="68" width="26" height="350" rx="10" transform="rotate(45 384.584 68)" fill="#6C6C6C"/>
</svg>
