<svg id="Capa_1" enable-background="new 0 0 512 512" height="512" viewBox="0 0 512 512" width="512" xmlns="http://www.w3.org/2000/svg"><g><g><g><path d="m421.53 205.767c-20.979-65.806-82.598-113.472-155.359-113.472-72.328 0-133.645 47.102-154.979 112.3-28.768-1.139-57.908 9.267-79.871 31.23-41.761 41.761-41.761 109.47 0 151.231 40.038 40.038 103.923 41.683 145.929 4.949 25.575 16.674 56.113 26.372 88.921 26.372 27.99 0 54.329-7.057 77.344-19.483 17.405 12.272 38.633 19.483 61.548 19.483 59.06 0 106.937-47.877 106.937-106.937 0-53.458-39.229-97.753-90.47-105.673z" fill="#eaf9fa"/><g fill="#d4f2f6"><path d="m295.94 111.279c0 15.113-12.249 27.372-27.372 27.372-15.113 0-27.372-12.259-27.372-27.372 0-6.882 2.534-13.176 6.727-17.977 5.985-.67 12.074-1.01 18.245-1.01 8.025 0 15.906.577 23.622 1.7 3.843 4.709 6.15 10.725 6.15 17.287z"/><path d="m402.842 166.414-225.589 225.589c-23.704 20.727-54.373 29.237-83.795 25.518l282.61-282.61c10.198 9.303 19.212 19.893 26.774 31.503z"/><path d="m92.326 228.653c0-14.142 11.465-25.607 25.607-25.607s25.607 11.465 25.607 25.607-11.465 25.607-25.607 25.607-25.607-11.465-25.607-25.607"/><path d="m512 311.441c0 55.99-43.02 101.916-97.805 106.541 31.709-18.554 53.003-52.962 53.003-92.356 0-50.347-34.8-92.571-81.659-103.93-5.495-1.332-9.906-5.358-11.934-10.636-23.499-61.158-82.798-104.574-152.24-104.574-8.963 0-17.76.721-26.331 2.122 21.489-10.446 45.627-16.308 71.134-16.308 72.762 0 134.387 47.656 155.362 113.464 51.241 7.923 90.47 52.221 90.47 105.677z"/></g><g><path d="m92.326 203.046c0-14.142 11.465-25.607 25.607-25.607s25.607 11.465 25.607 25.607-11.465 25.607-25.607 25.607-25.607-11.465-25.607-25.607" fill="#64b9fc"/><path d="m104.945 225.112c10.052-2.317 17.541-11.316 17.541-22.07 0-10.743-7.478-19.753-17.53-22.07 3.803-2.247 8.238-3.534 12.977-3.534 14.136 0 25.604 11.468 25.604 25.604 0 14.148-11.468 25.616-25.604 25.616-4.738 0-9.185-1.287-12.988-3.546" fill="#31a7fb"/></g></g><g><path d="m43.709 469.262-14.569-14.569c-4.023-4.023-4.023-10.546 0-14.569l389.66-389.66c4.023-4.023 10.546-4.023 14.569 0l14.569 14.569c4.023 4.023 4.023 10.546 0 14.569l-389.66 389.66c-4.023 4.023-10.546 4.023-14.569 0z" fill="#70d9e6"/></g></g><g><circle cx="268.571" cy="83.906" fill="#bcea73" r="27.371"/><path d="m295.94 83.903c0 15.122-12.258 27.38-27.368 27.38-5.066 0-9.819-1.376-13.884-3.79 10.744-2.477 18.75-12.095 18.75-23.59 0-11.483-7.993-21.114-18.737-23.59 4.065-2.402 8.806-3.777 13.871-3.777 15.11-.001 27.368 12.257 27.368 27.367z" fill="#99d53b"/></g><g><circle cx="104.945" cy="107.086" fill="#bcea73" r="23.18"/><path d="m128.123 107.083c0 12.806-10.381 23.187-23.177 23.187-4.29 0-8.315-1.165-11.758-3.21 9.099-2.097 15.879-10.243 15.879-19.978 0-9.724-6.769-17.881-15.868-19.978 3.443-2.034 7.457-3.199 11.747-3.199 12.796.001 23.177 10.382 23.177 23.178z" fill="#99d53b"/></g><g><path d="m353.098 58.793 5.883-5.883c3.017-3.017 3.017-7.909 0-10.927-3.018-3.017-7.909-3.017-10.928 0l-5.883 5.883-5.883-5.883c-3.018-3.017-7.909-3.017-10.928 0-3.017 3.017-3.017 7.909 0 10.927l5.883 5.883-5.883 5.883c-3.017 3.017-3.017 7.909 0 10.927 1.509 1.509 3.487 2.263 5.464 2.263s3.955-.755 5.464-2.263l5.883-5.883 5.883 5.883c1.509 1.509 3.487 2.263 5.464 2.263s3.955-.755 5.464-2.263c3.017-3.017 3.017-7.909 0-10.927z" fill="#a8e7ef"/><path d="m60.324 151.803c-3.018-3.017-7.909-3.017-10.928 0l-4.115 4.115-4.115-4.115c-3.017-3.017-7.908-3.018-10.928 0-3.017 3.017-3.017 7.909 0 10.927l4.116 4.116-4.116 4.116c-3.017 3.018-3.017 7.909 0 10.927 1.509 1.509 3.487 2.263 5.464 2.263s3.955-.755 5.464-2.263l4.115-4.115 4.115 4.115c1.509 1.509 3.486 2.263 5.464 2.263 1.977 0 3.955-.755 5.464-2.263 3.017-3.017 3.017-7.909 0-10.927l-4.116-4.116 4.116-4.116c3.017-3.018 3.017-7.91 0-10.927z" fill="#bcea73"/></g></g></svg>