<svg width="512" height="512" viewBox="0 0 512 512" fill="none" xmlns="http://www.w3.org/2000/svg">
<g clip-path="url(#clip0)">
<path d="M499.068 295.503H12.932C5.79 295.503 0 289.713 0 282.571V209.365C0 202.223 5.79 196.433 12.932 196.433H499.068C506.21 196.433 512 202.223 512 209.365V282.571C512 289.713 506.21 295.503 499.068 295.503Z" fill="#E0D3CE"/>
<path d="M433.224 465.793C426.334 472.683 415.164 472.683 408.274 465.793L276.805 334.325L301.755 309.375L433.224 440.844C440.114 447.733 440.114 458.903 433.224 465.793V465.793Z" fill="#2AAA8A"/>
<path d="M314.333 371.852L408.274 465.793C415.164 472.683 426.334 472.683 433.224 465.793C440.114 458.903 440.114 447.733 433.224 440.843L339.283 346.902L314.333 371.852Z" fill="#EFE2DD"/>
<path d="M211.826 369.268C281.851 369.268 338.618 312.501 338.618 242.476C338.618 172.451 281.851 115.684 211.826 115.684C141.801 115.684 85.0342 172.451 85.0342 242.476C85.0342 312.501 141.801 369.268 211.826 369.268Z" fill="#2AAA8A"/>
<path d="M190.717 153.023C171.689 157.484 154.949 167.868 142.535 182.126C137.57 176.944 134.52 169.918 134.52 162.182C134.52 146.255 147.438 133.337 163.365 133.337C176.089 133.336 186.895 141.588 190.717 153.023V153.023Z" fill="#2AAA8A"/>
<path d="M338.618 242.48C338.618 312.502 281.85 369.27 211.828 369.27C206.533 369.27 201.324 368.946 196.202 368.31C258.848 360.61 307.355 307.206 307.355 242.479C307.355 177.741 258.847 124.338 196.191 116.638C201.314 116.002 206.533 115.678 211.828 115.678C281.85 115.679 338.618 172.447 338.618 242.48V242.48Z" fill="#2AAA8A"/>
<path d="M211.826 334.371C262.578 334.371 303.721 293.228 303.721 242.476C303.721 191.724 262.578 150.581 211.826 150.581C161.074 150.581 119.931 191.724 119.931 242.476C119.931 293.228 161.074 334.371 211.826 334.371Z" fill="#D4F2F6"/>
<path d="M192.211 162.181C192.211 178.108 179.292 191.026 163.366 191.026C155.176 191.026 147.779 187.606 142.536 182.125C154.95 167.867 171.69 157.483 190.718 153.022C191.686 155.897 192.211 158.978 192.211 162.181V162.181Z" fill="#A8E7EF"/>
<path d="M303.72 242.48C303.72 293.231 262.578 334.373 211.828 334.373C206.404 334.373 201.098 333.898 195.932 333.003C239.112 325.476 271.928 287.806 271.928 242.48C271.928 197.143 239.112 159.474 195.932 151.946C201.098 151.051 206.403 150.576 211.828 150.576C262.578 150.576 303.72 191.718 303.72 242.48V242.48Z" fill="#A8E7EF"/>
<path d="M483.873 227.287C475.998 219.413 463.184 219.413 455.309 227.287C449.369 233.227 447.916 241.976 450.937 249.297L442.859 257.375C439.842 260.392 439.842 265.284 442.859 268.302C444.368 269.811 446.346 270.565 448.323 270.565C450.3 270.565 452.278 269.81 453.787 268.302L461.864 260.225C464.332 261.243 466.961 261.758 469.592 261.758C474.763 261.758 479.936 259.789 483.874 255.853L483.875 255.852C491.749 247.976 491.749 235.162 483.873 227.287ZM472.948 244.925C471.097 246.775 468.086 246.775 466.237 244.925C464.387 243.075 464.387 240.064 466.237 238.214C467.162 237.289 468.377 236.827 469.592 236.827C470.807 236.827 472.023 237.289 472.947 238.214C474.797 240.064 474.797 243.074 472.948 244.925Z" fill="#E0D3CE"/>
<path d="M81.1771 121.903C78.1591 118.886 73.2681 118.886 70.2491 121.903L64.1081 128.044L57.9671 121.903C54.9491 118.886 50.0581 118.886 47.0391 121.903C44.0221 124.92 44.0221 129.812 47.0391 132.83L53.1811 138.972L47.0391 145.114C44.0221 148.131 44.0221 153.023 47.0391 156.041C48.5481 157.55 50.5261 158.304 52.5031 158.304C54.4801 158.304 56.4581 157.549 57.9671 156.041L64.1081 149.9L70.2491 156.041C71.7581 157.55 73.7361 158.304 75.7131 158.304C77.6901 158.304 79.6681 157.549 81.1771 156.041C84.1941 153.024 84.1941 148.132 81.1771 145.114L75.0351 138.972L81.1771 132.83C84.1941 129.812 84.1941 124.92 81.1771 121.903V121.903Z" fill="#BCEA73"/>
<path d="M382.119 150.576L388.261 144.434C391.278 141.417 391.278 136.525 388.261 133.507C385.243 130.49 380.352 130.49 377.333 133.507L371.192 139.648L365.051 133.507C362.033 130.49 357.142 130.49 354.123 133.507C351.106 136.524 351.106 141.416 354.123 144.434L360.265 150.576L354.123 156.718C351.106 159.735 351.106 164.627 354.123 167.645C355.632 169.154 357.61 169.908 359.587 169.908C361.564 169.908 363.542 169.153 365.051 167.645L371.192 161.504L377.333 167.645C378.842 169.154 380.82 169.908 382.797 169.908C384.774 169.908 386.752 169.153 388.261 167.645C391.278 164.628 391.278 159.736 388.261 156.718L382.119 150.576Z" fill="#A8E7EF"/>
<path d="M109.883 92.0171C123.96 92.0171 135.372 80.6052 135.372 66.5281C135.372 52.4509 123.96 41.0391 109.883 41.0391C95.8059 41.0391 84.394 52.4509 84.394 66.5281C84.394 80.6052 95.8059 92.0171 109.883 92.0171Z" fill="#A8E7EF"/>
<path d="M135.37 66.5251C135.37 80.6071 123.955 92.0221 109.885 92.0221C105.168 92.0221 100.742 90.7411 96.9561 88.4931C106.961 86.1871 114.416 77.2301 114.416 66.5251C114.416 55.8321 106.973 46.8631 96.9681 44.5571C100.754 42.3201 105.168 41.0391 109.885 41.0391C123.955 41.0401 135.37 52.4541 135.37 66.5251Z" fill="#70D9E6"/>
<path d="M324.429 112.354C337.082 112.354 347.339 102.097 347.339 89.4441C347.339 76.7912 337.082 66.5341 324.429 66.5341C311.776 66.5341 301.519 76.7912 301.519 89.4441C301.519 102.097 311.776 112.354 324.429 112.354Z" fill="#2AAA8A" fill-opacity="0.74"/>
<path d="M347.337 89.4411C347.337 102.099 337.077 112.359 324.43 112.359C320.19 112.359 316.211 111.207 312.809 109.187C321.802 107.114 328.503 99.0631 328.503 89.4421C328.503 79.8311 321.813 71.7691 312.82 69.6961C316.223 67.6861 320.191 66.5341 324.431 66.5341C337.077 66.5341 347.337 76.7941 347.337 89.4411V89.4411Z" fill="#2AAA8A"/>
<path d="M134.522 138.968C134.522 123.039 147.435 110.125 163.365 110.125C179.295 110.125 192.208 123.038 192.208 138.968C192.208 154.898 179.295 167.811 163.365 167.811C147.435 167.811 134.522 154.898 134.522 138.968Z" fill="#BCEA73"/>
<path d="M148.736 163.823C160.058 161.213 168.494 151.077 168.494 138.965C168.494 126.865 160.072 116.716 148.749 114.106C153.033 111.575 158.028 110.125 163.366 110.125C179.288 110.125 192.205 123.042 192.205 138.964C192.205 154.899 179.288 167.816 163.366 167.816C158.029 167.817 153.02 166.367 148.736 163.823Z" fill="#99D53B"/>
<path d="M228.374 271.255C226.6 271.255 224.818 270.647 223.362 269.405C219.895 266.445 214.949 264.739 209.792 264.724C209.769 264.724 209.745 264.724 209.721 264.724C204.59 264.724 199.664 266.399 196.195 269.324C192.932 272.075 188.057 271.66 185.308 268.398C182.556 265.135 182.972 260.261 186.234 257.51C192.538 252.195 200.874 249.271 209.718 249.271H209.84C218.73 249.297 227.097 252.274 233.396 257.651C236.641 260.422 237.027 265.298 234.256 268.544C232.726 270.335 230.557 271.255 228.374 271.255V271.255Z" fill="#2AAA8A"/>
<path d="M168.815 236.135C164.547 236.135 161.043 232.676 161.043 228.409C161.043 224.142 164.456 220.683 168.724 220.683H168.815C173.083 220.683 176.541 224.142 176.541 228.409C176.541 232.676 173.082 236.135 168.815 236.135V236.135Z" fill="#2AAA8A"/>
<path d="M252.887 236.135C248.619 236.135 245.115 232.676 245.115 228.409C245.115 224.142 248.528 220.683 252.796 220.683H252.887C257.155 220.683 260.613 224.142 260.613 228.409C260.613 232.676 257.155 236.135 252.887 236.135V236.135Z" fill="#2AAA8A"/>
</g>
<defs>
<clipPath id="clip0">
<rect width="512" height="512" fill="white"/>
</clipPath>
</defs>
</svg>
