<?xml version="1.0" encoding="iso-8859-1"?>
<!-- Generator: Adobe Illustrator 19.0.0, SVG Export Plug-In . SVG Version: 6.00 Build 0)  -->
<svg version="1.1" id="Capa_1" xmlns="http://www.w3.org/2000/svg" xmlns:xlink="http://www.w3.org/1999/xlink" x="0px" y="0px"
	 viewBox="0 0 512 512" style="enable-background:new 0 0 512 512;" xml:space="preserve">
<polygon style="fill:#6C819F;" points="271,392.741 271,307 245.992,307 256,512 271,512 271,431.793 367.187,511.949 
	386.392,488.902 "/>
<polygon style="fill:#A1B8D8;" points="241,307 241,392.741 125.608,488.902 144.813,511.949 241,431.793 241,512 256,512 256,307 
	"/>
<polygon style="fill:#D6E6FD;" points="512,0 256,0 235.984,176.012 256,342.067 512,342.067 "/>
<rect style="fill:#F4F4FF;" width="256" height="342.07"/>
<polygon style="fill:#467BCA;" points="350.488,48.786 350.488,78.786 412.001,78.786 339.402,151.384 256,91.015 245.992,116.333 
	256,138.503 260.399,131.233 342.53,190.683 433.214,99.999 433.214,161.512 463.214,161.512 463.214,48.786 "/>
<polygon style="fill:#68B7EA;" points="251.601,87.83 154.519,248.247 66.311,182.695 48.416,206.774 163.104,292.004 256,138.503 
	256,91.015 "/>
<g>
</g>
<g>
</g>
<g>
</g>
<g>
</g>
<g>
</g>
<g>
</g>
<g>
</g>
<g>
</g>
<g>
</g>
<g>
</g>
<g>
</g>
<g>
</g>
<g>
</g>
<g>
</g>
<g>
</g>
</svg>
